<mxfile host="Electron" modified="2023-04-23T10:15:28.265Z" agent="Mozilla/5.0 (X11; Linux x86_64) AppleWebKit/537.36 (KHTML, like Gecko) draw.io/21.1.2 Chrome/106.0.5249.199 Electron/21.4.3 Safari/537.36" etag="mgIOB05ToL3ahSh1FZzi" version="21.1.2" type="device">
  <diagram id="9hV1_gX49DciTza8APcL" name="Page-1">
    <mxGraphModel dx="1430" dy="65" grid="1" gridSize="10" guides="1" tooltips="1" connect="1" arrows="1" fold="1" page="1" pageScale="1" pageWidth="1169" pageHeight="827" math="0" shadow="0">
      <root>
        <mxCell id="0" />
        <mxCell id="1" parent="0" />
        <mxCell id="KGDkfDXrJlpGTvkQKbTq-8" style="edgeStyle=orthogonalEdgeStyle;rounded=0;orthogonalLoop=1;jettySize=auto;html=1;entryX=0.5;entryY=0;entryDx=0;entryDy=0;" parent="1" source="KGDkfDXrJlpGTvkQKbTq-1" target="KGDkfDXrJlpGTvkQKbTq-3" edge="1">
          <mxGeometry relative="1" as="geometry" />
        </mxCell>
        <mxCell id="KGDkfDXrJlpGTvkQKbTq-9" style="edgeStyle=orthogonalEdgeStyle;rounded=0;orthogonalLoop=1;jettySize=auto;html=1;entryX=0.569;entryY=0.007;entryDx=0;entryDy=0;entryPerimeter=0;" parent="1" source="KGDkfDXrJlpGTvkQKbTq-1" target="KGDkfDXrJlpGTvkQKbTq-4" edge="1">
          <mxGeometry relative="1" as="geometry" />
        </mxCell>
        <mxCell id="KGDkfDXrJlpGTvkQKbTq-1" value="Project: dinosaur" style="rounded=1;whiteSpace=wrap;html=1;" parent="1" vertex="1">
          <mxGeometry x="150" y="900" width="120" height="60" as="geometry" />
        </mxCell>
        <mxCell id="KGDkfDXrJlpGTvkQKbTq-10" style="edgeStyle=orthogonalEdgeStyle;rounded=0;orthogonalLoop=1;jettySize=auto;html=1;entryX=0.5;entryY=0;entryDx=0;entryDy=0;" parent="1" source="KGDkfDXrJlpGTvkQKbTq-2" target="KGDkfDXrJlpGTvkQKbTq-5" edge="1">
          <mxGeometry relative="1" as="geometry">
            <Array as="points">
              <mxPoint x="770" y="1120" />
              <mxPoint x="640" y="1120" />
            </Array>
          </mxGeometry>
        </mxCell>
        <mxCell id="KGDkfDXrJlpGTvkQKbTq-11" style="edgeStyle=orthogonalEdgeStyle;rounded=0;orthogonalLoop=1;jettySize=auto;html=1;" parent="1" source="KGDkfDXrJlpGTvkQKbTq-2" target="KGDkfDXrJlpGTvkQKbTq-6" edge="1">
          <mxGeometry relative="1" as="geometry" />
        </mxCell>
        <mxCell id="KGDkfDXrJlpGTvkQKbTq-13" style="edgeStyle=orthogonalEdgeStyle;rounded=0;orthogonalLoop=1;jettySize=auto;html=1;" parent="1" source="KGDkfDXrJlpGTvkQKbTq-2" target="KGDkfDXrJlpGTvkQKbTq-7" edge="1">
          <mxGeometry relative="1" as="geometry">
            <Array as="points">
              <mxPoint x="770" y="1120" />
              <mxPoint x="910" y="1120" />
            </Array>
          </mxGeometry>
        </mxCell>
        <mxCell id="KGDkfDXrJlpGTvkQKbTq-2" value="Project: goldfish" style="rounded=1;whiteSpace=wrap;html=1;" parent="1" vertex="1">
          <mxGeometry x="710" y="1030" width="120" height="60" as="geometry" />
        </mxCell>
        <mxCell id="KGDkfDXrJlpGTvkQKbTq-3" value="NS: cicd" style="rounded=1;whiteSpace=wrap;html=1;" parent="1" vertex="1">
          <mxGeometry x="70" y="1140" width="120" height="60" as="geometry" />
        </mxCell>
        <mxCell id="KGDkfDXrJlpGTvkQKbTq-4" value="NS: dev" style="rounded=1;whiteSpace=wrap;html=1;" parent="1" vertex="1">
          <mxGeometry x="230" y="1140" width="120" height="60" as="geometry" />
        </mxCell>
        <mxCell id="KGDkfDXrJlpGTvkQKbTq-5" value="NS: cicd" style="rounded=1;whiteSpace=wrap;html=1;" parent="1" vertex="1">
          <mxGeometry x="580" y="1150" width="120" height="60" as="geometry" />
        </mxCell>
        <mxCell id="KGDkfDXrJlpGTvkQKbTq-6" value="NS: dev" style="rounded=1;whiteSpace=wrap;html=1;" parent="1" vertex="1">
          <mxGeometry x="710" y="1150" width="120" height="60" as="geometry" />
        </mxCell>
        <mxCell id="KGDkfDXrJlpGTvkQKbTq-7" value="NS: test" style="rounded=1;whiteSpace=wrap;html=1;" parent="1" vertex="1">
          <mxGeometry x="850" y="1150" width="120" height="60" as="geometry" />
        </mxCell>
        <mxCell id="KGDkfDXrJlpGTvkQKbTq-16" style="edgeStyle=orthogonalEdgeStyle;rounded=0;orthogonalLoop=1;jettySize=auto;html=1;entryX=0.5;entryY=1;entryDx=0;entryDy=0;" parent="1" source="KGDkfDXrJlpGTvkQKbTq-14" target="KGDkfDXrJlpGTvkQKbTq-3" edge="1">
          <mxGeometry relative="1" as="geometry" />
        </mxCell>
        <mxCell id="KGDkfDXrJlpGTvkQKbTq-17" style="edgeStyle=orthogonalEdgeStyle;rounded=0;orthogonalLoop=1;jettySize=auto;html=1;entryX=0.568;entryY=1.058;entryDx=0;entryDy=0;entryPerimeter=0;" parent="1" source="KGDkfDXrJlpGTvkQKbTq-14" target="KGDkfDXrJlpGTvkQKbTq-4" edge="1">
          <mxGeometry relative="1" as="geometry" />
        </mxCell>
        <mxCell id="KGDkfDXrJlpGTvkQKbTq-18" style="edgeStyle=orthogonalEdgeStyle;rounded=0;orthogonalLoop=1;jettySize=auto;html=1;entryX=0.448;entryY=1.02;entryDx=0;entryDy=0;entryPerimeter=0;" parent="1" source="KGDkfDXrJlpGTvkQKbTq-14" target="KGDkfDXrJlpGTvkQKbTq-5" edge="1">
          <mxGeometry relative="1" as="geometry" />
        </mxCell>
        <mxCell id="KGDkfDXrJlpGTvkQKbTq-19" style="edgeStyle=orthogonalEdgeStyle;rounded=0;orthogonalLoop=1;jettySize=auto;html=1;entryX=0.5;entryY=1;entryDx=0;entryDy=0;" parent="1" source="KGDkfDXrJlpGTvkQKbTq-14" target="KGDkfDXrJlpGTvkQKbTq-6" edge="1">
          <mxGeometry relative="1" as="geometry" />
        </mxCell>
        <mxCell id="KGDkfDXrJlpGTvkQKbTq-14" value="Cluster: Hub" style="rounded=1;whiteSpace=wrap;html=1;" parent="1" vertex="1">
          <mxGeometry x="70" y="1450" width="120" height="60" as="geometry" />
        </mxCell>
        <mxCell id="KGDkfDXrJlpGTvkQKbTq-22" style="edgeStyle=orthogonalEdgeStyle;rounded=0;orthogonalLoop=1;jettySize=auto;html=1;entryX=0.75;entryY=1;entryDx=0;entryDy=0;fillColor=#f8cecc;strokeColor=#b85450;" parent="1" source="KGDkfDXrJlpGTvkQKbTq-15" target="KGDkfDXrJlpGTvkQKbTq-5" edge="1">
          <mxGeometry relative="1" as="geometry">
            <Array as="points">
              <mxPoint x="940" y="1390" />
              <mxPoint x="670" y="1390" />
            </Array>
          </mxGeometry>
        </mxCell>
        <mxCell id="KGDkfDXrJlpGTvkQKbTq-24" style="edgeStyle=orthogonalEdgeStyle;rounded=0;orthogonalLoop=1;jettySize=auto;html=1;entryX=0.75;entryY=1;entryDx=0;entryDy=0;fillColor=#f8cecc;strokeColor=#b85450;" parent="1" source="KGDkfDXrJlpGTvkQKbTq-15" target="KGDkfDXrJlpGTvkQKbTq-3" edge="1">
          <mxGeometry relative="1" as="geometry">
            <mxPoint x="160" y="1220" as="targetPoint" />
            <Array as="points">
              <mxPoint x="940" y="1430" />
              <mxPoint x="535" y="1430" />
              <mxPoint x="535" y="1350" />
              <mxPoint x="160" y="1350" />
            </Array>
          </mxGeometry>
        </mxCell>
        <mxCell id="KGDkfDXrJlpGTvkQKbTq-15" value="Cluster: Prod" style="rounded=1;whiteSpace=wrap;html=1;" parent="1" vertex="1">
          <mxGeometry x="880" y="1450" width="120" height="60" as="geometry" />
        </mxCell>
      </root>
    </mxGraphModel>
  </diagram>
</mxfile>
